<svg id="Layer_1" data-name="Layer 1" xmlns="http://www.w3.org/2000/svg" xmlns:xlink="http://www.w3.org/1999/xlink" viewBox="0 0 1563.8 2000.02"><defs><style>.cls-1{fill:#fff;}.cls-2{fill:url(#radial-gradient);}</style><radialGradient id="radial-gradient" cx="788.18" cy="876.47" r="462.2" gradientTransform="matrix(1, 0, 0, -1, -0.01, 1999.54)" gradientUnits="userSpaceOnUse"><stop offset="0.2" stop-color="#fff9e1"/><stop offset="0.36" stop-color="#f8ffc8"/><stop offset="0.58" stop-color="#ffff5b"/><stop offset="0.59" stop-color="#ffffc7"/><stop offset="0.65" stop-color="#fff"/><stop offset="0.72" stop-color="#9feaff"/><stop offset="0.81" stop-color="#1accff"/><stop offset="0.83" stop-color="#26c6ff"/><stop offset="0.91" stop-color="#4db4ff"/><stop offset="0.96" stop-color="#65a9ff"/><stop offset="1" stop-color="#6ea5ff"/></radialGradient></defs><g id="Layer_5" data-name="Layer 5"><path class="cls-1" d="M339.13,1608.52l.51,389.19h-40.3v-229l-130.4,235.77L39.81,1771.2v226.51H0V1608l170.44,305.59Z" transform="translate(-0.01 -4.46)"/><path class="cls-1" d="M402.71,1763.94a128.49,128.49,0,0,0-9.51,47.56q1.74,61.32,45.05,104.87,43.54,43.29,104.86,44.8a152.9,152.9,0,0,0,87.35-30q38.29-28,54.56-77.08h42q-19,68.33-69.08,106.87-50.55,39.29-114.88,39.29-78.07,0-133.65-55.06-55.07-55.56-55.06-133.65,0-77.83,55.06-133.4,55.56-55.07,133.65-55.06,65.33,0,116.38,40.29,50.56,39.8,66.33,100.36Zm263-37q-9.76-18.26-37-38-38-27-85.6-27-59.31,0-101.36,39.79Q425,1717.51,420,1727Z" transform="translate(-0.01 -4.46)"/><path class="cls-1" d="M1043.93,1676.85q52.3,48.56,52.3,135.4t-52.3,135.4q-36.8,34.29-94.61,45.55-30.29,5.76-55.81,4.26H750.1l.25-370.67h53.56l89.85.25q35.54,0,58.31,4.26Q1007.14,1642.31,1043.93,1676.85Zm-26.78,241.77q39.54-37,39.54-106.37,0-69.57-39.54-106.62-29.29-27.29-77.84-35.79-25.53-4.75-44-3.25H788.89v291.32H895q80.09,0,122.14-39.29Z" transform="translate(-0.01 -4.46)"/><path class="cls-1" d="M1150,1997.71h-38.79V1626.29H1150Z" transform="translate(-0.01 -4.46)"/><path class="cls-1" d="M1563.81,1997.71h-46l-153.17-289.58-151.92,289.58h-47.41l175.2-333.13v-.25l24.28-45.3,22.52,42.8Z" transform="translate(-0.01 -4.46)"/></g><g id="Layer_2" data-name="Layer 2"><polyline class="cls-2" points="1321.25 1500.85 1321.25 1149.82 992.35 1149.82 607.11 744.8 607.11 1150.9 255.09 1150.9 255.09 1501.34"/></g><g id="Layer_7" data-name="Layer 7"><polygon class="cls-1" points="256.55 0 255.2 351.02 584.1 352.29 967.78 758.8 969.34 352.7 1310.36 354.06 1309.06 171.05 1311.71 3.62 256.55 0"/></g></svg>