<svg xmlns="http://www.w3.org/2000/svg" xmlns:xlink="http://www.w3.org/1999/xlink" viewBox="0 0 1563.76 2000"><defs><style>.cls-1{fill:#fff;}.cls-2{fill:url(#linear-gradient);}.cls-3{fill:url(#linear-gradient-3);}</style><linearGradient id="linear-gradient" x1="420.39" y1="1666.62" x2="1129.23" y2="957.78" gradientUnits="userSpaceOnUse"><stop offset="0.2" stop-color="#878787"/><stop offset="0.38" stop-color="#898989"/><stop offset="0.45" stop-color="#909090"/><stop offset="0.49" stop-color="#9b9b9b"/><stop offset="0.53" stop-color="#acacac"/><stop offset="0.56" stop-color="#c2c2c2"/><stop offset="0.56" stop-color="#c6c6c6"/><stop offset="0.6" stop-color="#bababa"/><stop offset="0.67" stop-color="#a3a3a3"/><stop offset="0.75" stop-color="#939393"/><stop offset="0.85" stop-color="#8a8a8a"/><stop offset="0.98" stop-color="#878787"/></linearGradient><linearGradient id="linear-gradient-3" x1="420.39" y1="1666.62" x2="1129.23" y2="957.78" gradientUnits="userSpaceOnUse"><stop offset="0.2" stop-color="#bea670"/><stop offset="0.37" stop-color="#bfa772"/><stop offset="0.43" stop-color="#c2ab79"/><stop offset="0.47" stop-color="#c9b384"/><stop offset="0.51" stop-color="#d1bd95"/><stop offset="0.54" stop-color="#ddcbab"/><stop offset="0.56" stop-color="#eadbc5"/><stop offset="0.57" stop-color="#e7d8bf"/><stop offset="0.64" stop-color="#d8c6a3"/><stop offset="0.71" stop-color="#cdb88c"/><stop offset="0.78" stop-color="#c4ae7c"/><stop offset="0.86" stop-color="#c0a873"/><stop offset="0.98" stop-color="#bea670"/></linearGradient></defs><g id="Layer_5" data-name="Layer 5"><path class="cls-1" d="M543.32,1608.73l.51,389.19h-40.3v-229l-130.4,235.77L244,1771.41v226.51h-39.8V1608.23l170.44,305.59Z" transform="translate(-204.19 -4.68)"/><path class="cls-1" d="M606.9,1764.15a128.37,128.37,0,0,0-9.51,47.56q1.74,61.32,45.05,104.87,43.54,43.29,104.86,44.8a152.89,152.89,0,0,0,87.35-30q38.29-28,54.56-77.08h42q-19,68.33-69.08,106.87-50.55,39.28-114.88,39.29-78.07,0-133.65-55.06-55.06-55.56-55.06-133.65,0-77.84,55.06-133.4,55.56-55.07,133.65-55.06,65.33,0,116.38,40.29,50.57,39.8,66.33,100.36Zm263-37q-9.77-18.25-37-38-38-27-85.6-27-59.31,0-101.36,39.79-16.77,15.78-21.77,25.28Z" transform="translate(-204.19 -4.68)"/><path class="cls-1" d="M1248.12,1677.06q52.31,48.56,52.3,135.4t-52.3,135.4q-36.8,34.29-94.61,45.55-30.29,5.76-55.81,4.26H954.29l.25-370.67h53.56l89.85.25q35.54,0,58.31,4.26Q1211.33,1642.52,1248.12,1677.06Zm-26.78,241.77q39.54-37,39.54-106.37,0-69.57-39.54-106.62-29.29-27.28-77.84-35.79-25.53-4.75-44-3.25H993.08v291.32H1099.2Q1179.28,1958.12,1221.34,1918.83Z" transform="translate(-204.19 -4.68)"/><path class="cls-1" d="M1354.23,1997.92h-38.79V1626.5h38.79Z" transform="translate(-204.19 -4.68)"/><path class="cls-1" d="M1768,1997.92h-46l-153.17-289.58-151.92,289.58H1369.5l175.2-333.13v-.25l24.28-45.3,22.52,42.8Z" transform="translate(-204.19 -4.68)"/></g><g id="Layer_2" data-name="Layer 2"><polyline class="cls-2" points="1321.26 1500.84 1321.26 1149.82 992.36 1149.82 607.12 744.79 607.12 1150.9 255.1 1150.9 255.1 1501.34"/><polyline class="cls-1" points="256.56 0 255.21 351.02 584.11 352.29 967.79 758.8 969.35 352.69 1321.37 354.05 1322.72 3.61"/><polyline class="cls-2" points="1321.26 1500.84 1321.26 1149.82 992.36 1149.82 607.12 744.79 607.12 1150.9 255.1 1150.9 255.1 1501.34"/></g><g id="Layer_4" data-name="Layer 4"><polyline class="cls-3" points="1321.26 1500.84 1321.26 1149.82 992.36 1149.82 607.12 744.79 607.12 1150.9 255.1 1150.9 255.1 1501.34"/><polyline class="cls-1" points="256.56 0 255.21 351.02 584.11 352.29 967.79 758.8 969.35 352.69 1321.37 354.05 1322.72 3.61"/></g></svg>